<svg id="Capa_1" data-name="Capa 1" xmlns="http://www.w3.org/2000/svg" viewBox="0 0 271.87 322.64"><defs><style>.cls-1{fill:#fff;}.cls-2{fill:#1d1d1b;}.cls-3{fill:#e30613;}</style></defs><path class="cls-1" d="M187.77,513.33V253.83H416.06v259.5Zm106.12-5.83c1.26-.59,2.2-1,3.13-1.48q45.28-22.18,90.56-44.37c2.1-1,5.12-1.77,5.9-3.41s-.65-4.27-1.14-6.46c-1.42-6.33-3.77-12.65-2.19-19.2a167.48,167.48,0,0,1,5.12-16.22c1.66-4.73-.12-9.17-4.77-11a8.66,8.66,0,0,0-11.4,4.52c-5.52,12.05-8.89,24.43-5.82,37.64.4,1.72-.26,2.29-1.71,3q-33.92,16.51-67.77,33.12a19.17,19.17,0,0,1-1.88.71c-2.69-5-5.05-9.95-8-14.57a28.77,28.77,0,0,0-6.74-7.24c-5.05-3.85-11.2-3.3-17.27-3.1-7.94.28-15.9.39-23.85.24-4.81-.09-6.36-1.93-6.32-6.51,0-5,.24-10.13-2.07-14.73-3.67-7.28-5-15.07-6.23-22.86-.81-5.15-3.77-8-8.68-9.61-4.16-1.38-4.81-2.61-2.94-6.32,2.19-4.36,4.68-8.59,7-12.88,4.79-8.78,7.18-17.61,3.59-27.59a45.77,45.77,0,0,1-1.5-25.67c4.31-19.45,16.85-33.23,34.49-43.19,15.93-9,33.41-12.88,51.89-13.13,5.41-.07,9.5-3.85,9.38-8.54s-4.51-8.45-9.85-8.09c-6.78.46-13.63.73-20.31,1.84-22.35,3.71-42.6,11.92-58.89,27.12-22,20.57-30.71,45.13-22.34,73.87a18.51,18.51,0,0,1-1.48,14.82c-.79,1.49-1.66,2.94-2.44,4.43-2.12,4.12-4.52,8.13-6.26,12.38-4.25,10.39-.3,19.89,10,25.22a3.82,3.82,0,0,1,1.71,2.41c1.38,7,2.58,14.07,6.16,20.56,1.07,2,1.11,4.48,1.35,6.77.2,2-.1,4,0,6a21,21,0,0,0,18.15,19.71c7.67,1.05,15.49,1.13,23.26,1.36a73,73,0,0,0,10.3-.8,4.47,4.47,0,0,1,4.95,2.48c1.48,2.75,3,5.46,4.45,8.24C286.92,493.72,290.33,500.48,293.89,507.5Z" transform="translate(-187.77 -240.69)"/><path d="M293.89,507.5c-3.56-7-7-13.78-10.42-20.52-1.43-2.78-3-5.49-4.45-8.24a4.47,4.47,0,0,0-4.95-2.48,73,73,0,0,1-10.3.8c-7.77-.23-15.59-.31-23.26-1.36A21,21,0,0,1,222.36,456c-.09-2,.21-4,0-6-.24-2.29-.28-4.81-1.35-6.77-3.58-6.49-4.78-13.53-6.16-20.56a3.82,3.82,0,0,0-1.71-2.41c-10.33-5.33-14.28-14.83-10-25.22,1.74-4.25,4.14-8.26,6.26-12.38.78-1.49,1.65-2.94,2.44-4.43a18.51,18.51,0,0,0,1.48-14.82c-8.37-28.74.31-53.3,22.34-73.87,16.29-15.2,36.54-23.41,58.89-27.12,6.68-1.11,13.53-1.38,20.31-1.84,5.34-.36,9.73,3.4,9.85,8.09s-4,8.47-9.38,8.54c-18.48.25-36,4.14-51.89,13.13-17.64,10-30.18,23.74-34.49,43.19a45.77,45.77,0,0,0,1.5,25.67c3.59,10,1.2,18.81-3.59,27.59-2.34,4.29-4.83,8.52-7,12.88-1.87,3.71-1.22,4.94,2.94,6.32,4.91,1.62,7.87,4.46,8.68,9.61,1.21,7.79,2.56,15.58,6.23,22.86,2.31,4.6,2.12,9.72,2.07,14.73,0,4.58,1.51,6.42,6.32,6.51,7.95.15,15.91,0,23.85-.24,6.07-.2,12.22-.75,17.27,3.1a28.77,28.77,0,0,1,6.74,7.24c2.95,4.62,5.31,9.58,8,14.57a19.17,19.17,0,0,0,1.88-.71q33.88-16.56,67.77-33.12c1.45-.71,2.11-1.28,1.71-3-3.07-13.21.3-25.59,5.82-37.64a8.66,8.66,0,0,1,11.4-4.52c4.65,1.81,6.43,6.25,4.77,11a167.48,167.48,0,0,0-5.12,16.22c-1.58,6.55.77,12.87,2.19,19.2.49,2.19,1.93,4.8,1.14,6.46s-3.8,2.38-5.9,3.41Q342.31,483.85,297,506C296.09,506.47,295.15,506.91,293.89,507.5Z" transform="translate(-187.77 -240.69)"/><path class="cls-2" d="M194.24,563.33V528.82H223a5.62,5.62,0,0,1,2.91.79A6,6,0,0,1,228,531.7a5.5,5.5,0,0,1,.77,2.88v10.13a5.45,5.45,0,0,1-.77,2.88,6,6,0,0,1-2.08,2.09,5.53,5.53,0,0,1-2.91.79H198.13v12.86Zm5.76-16.8h23a1.85,1.85,0,0,0,1.32-.52,1.74,1.74,0,0,0,.55-1.3V534.58a1.88,1.88,0,0,0-1.87-1.87H200a1.88,1.88,0,0,0-1.87,1.87v10.13a1.74,1.74,0,0,0,.55,1.3A1.85,1.85,0,0,0,200,546.53Zm23.43,16.8-11.28-13.44h5.08l11.33,13.4v0Z" transform="translate(-187.77 -240.69)"/><path class="cls-3" d="M236.6,562.54a6.09,6.09,0,0,1-2.11-2.11,5.52,5.52,0,0,1-.79-2.9v-.77h4v.77a1.88,1.88,0,0,0,1.87,1.87h23.28a1.9,1.9,0,0,0,1.88-1.87v-8a1.81,1.81,0,0,0-.56-1.32,1.78,1.78,0,0,0-1.32-.55H240.32V543.7h21a1.8,1.8,0,0,0,1.32-.55,1.84,1.84,0,0,0,.55-1.32v-7.25a1.84,1.84,0,0,0-.55-1.32,1.8,1.8,0,0,0-1.32-.55H239.55a1.8,1.8,0,0,0-1.32.55,1.84,1.84,0,0,0-.55,1.32v1.25h-4v-1.25a5.59,5.59,0,0,1,.79-3,6.09,6.09,0,0,1,2.11-2.11,5.59,5.59,0,0,1,3-.79H261.3a5.62,5.62,0,0,1,2.95.79,5.87,5.87,0,0,1,2.09,2.11,5.77,5.77,0,0,1,.77,3v7.25a5.31,5.31,0,0,1-.17,1.32,8.56,8.56,0,0,1-.41,1.18,6.19,6.19,0,0,1,1.66,2.54,8.61,8.61,0,0,1,.45,2.64v8a5.52,5.52,0,0,1-.79,2.9,6.09,6.09,0,0,1-2.11,2.11,5.53,5.53,0,0,1-2.91.79H239.55A5.59,5.59,0,0,1,236.6,562.54Z" transform="translate(-187.77 -240.69)"/><path class="cls-2" d="M273.49,563.33V528.77h5.33l25.34,30.15V528.77h3.89v34.56h-5.33l-25.34-30.14v30.14Z" transform="translate(-187.77 -240.69)"/><path class="cls-3" d="M313.52,563.33V528.77h28.8a5.73,5.73,0,0,1,5.76,5.76v23a5.71,5.71,0,0,1-5.76,5.76Zm5.76-3.88h23a1.81,1.81,0,0,0,1.32-.56,1.77,1.77,0,0,0,.55-1.32v-23a1.8,1.8,0,0,0-.55-1.32,1.84,1.84,0,0,0-1.32-.55h-23a1.84,1.84,0,0,0-1.32.55,1.8,1.8,0,0,0-.55,1.32v23a1.77,1.77,0,0,0,.55,1.32A1.81,1.81,0,0,0,319.28,559.45Z" transform="translate(-187.77 -240.69)"/><path class="cls-2" d="M356.12,562.54a6.09,6.09,0,0,1-2.11-2.11,5.52,5.52,0,0,1-.79-2.9V541.3a5.52,5.52,0,0,1,.79-2.9,6,6,0,0,1,2.11-2.11,5.53,5.53,0,0,1,2.9-.8h16.71a5.6,5.6,0,0,1,2.95.8,6,6,0,0,1,2.11,2.11,5.52,5.52,0,0,1,.79,2.9v10.08H357.15v6.15A1.88,1.88,0,0,0,359,559.4h22.56v3.93H359A5.52,5.52,0,0,1,356.12,562.54Zm1-15.09H377.6V541.3a1.88,1.88,0,0,0-1.87-1.87H359a1.8,1.8,0,0,0-1.32.55,1.84,1.84,0,0,0-.55,1.32Z" transform="translate(-187.77 -240.69)"/><path class="cls-2" d="M385.38,563.33v0L397,549.17l-11.61-13.63v0h5.18l9,10.56,9.08-10.56h5.13v0l-11.61,13.63,11.66,14.12v0h-5.18l-9.08-11.13-9,11.13Z" transform="translate(-187.77 -240.69)"/><path class="cls-1" d="M457.22,373.39c3.22,0,3.22-5,0-5s-3.22,5,0,5Z" transform="translate(-187.77 -240.69)"/><rect class="cls-2" y="9.95" width="241.33" height="2"/><rect class="cls-2" x="225.52" width="2" height="288.03"/><path class="cls-1" d="M301.91,397.7V292.05h100.8V397.7Zm7.36-53.45c0,7.08,0,14.16,0,21.23a3.06,3.06,0,0,0,1.59,2.88q18.32,11.33,36.61,22.69a2.91,2.91,0,0,0,3.42,0c3.14-2,6.31-3.93,9.47-5.89l27.05-16.76A2.87,2.87,0,0,0,389,365.8q0-21.54,0-43.09a3,3,0,0,0-1.57-2.81Q369.19,308.64,351,297.3a3.09,3.09,0,0,0-3.65,0Q329.18,308.59,311,319.83a3.29,3.29,0,0,0-1.71,3.1C309.29,330,309.27,337.14,309.27,344.25Z" transform="translate(-187.77 -240.69)"/><path d="M309.27,344.25c0-7.11,0-14.21,0-21.32a3.29,3.29,0,0,1,1.71-3.1q18.21-11.25,36.37-22.55a3.09,3.09,0,0,1,3.65,0q18.21,11.34,36.45,22.6a3,3,0,0,1,1.57,2.81q0,21.54,0,43.09a2.87,2.87,0,0,1-1.63,2.58l-27.05,16.76c-3.16,2-6.33,3.9-9.47,5.89a2.91,2.91,0,0,1-3.42,0q-18.3-11.37-36.61-22.69a3.06,3.06,0,0,1-1.59-2.88C309.28,358.41,309.27,351.33,309.27,344.25Zm72.9-22.05-.61-.39Q365.8,312,350,302.24a1.46,1.46,0,0,0-1.82,0q-15.48,9.66-31,19.24l-1.15.73.58.39q16,9.9,31.93,19.81a1,1,0,0,0,1.19-.09l12.3-7.63C368.75,330.54,375.41,326.4,382.17,322.2Zm2.15,4.26-.55.31q-15.81,9.8-31.64,19.59a1.31,1.31,0,0,0-.63,1.34q0,18.14,0,36.26c0,.31,0,.62.05,1.06l1-.55q15.51-9.62,31-19.22a1.44,1.44,0,0,0,.79-1.43q0-18.17,0-36.35Zm-70.35,0v1.1q0,18.12,0,36.24a1.53,1.53,0,0,0,.81,1.5q15.57,9.62,31.1,19.26c.25.15.5.27.84.45,0-.34,0-.57,0-.8q0-18.36,0-36.7a1.25,1.25,0,0,0-.73-1.19q-13-8-26-16.09Z" transform="translate(-187.77 -240.69)"/><path class="cls-1" d="M382.17,322.2c-6.76,4.2-13.42,8.34-20.09,12.47l-12.3,7.63a1,1,0,0,1-1.19.09q-16-9.93-31.93-19.81l-.58-.39,1.15-.73q15.5-9.6,31-19.24a1.46,1.46,0,0,1,1.82,0q15.75,9.81,31.52,19.57Z" transform="translate(-187.77 -240.69)"/><path class="cls-1" d="M384.32,326.46v1q0,18.18,0,36.35a1.44,1.44,0,0,1-.79,1.43q-15.53,9.58-31,19.22l-1,.55c0-.44-.05-.75-.05-1.06q0-18.13,0-36.26a1.31,1.31,0,0,1,.63-1.34q15.84-9.76,31.64-19.59Z" transform="translate(-187.77 -240.69)"/><path class="cls-1" d="M314,326.44l6.1,3.77q13,8.06,26,16.09a1.25,1.25,0,0,1,.73,1.19q0,18.35,0,36.7c0,.23,0,.46,0,.8-.34-.18-.59-.3-.84-.45q-15.54-9.63-31.1-19.26a1.53,1.53,0,0,1-.81-1.5q0-18.12,0-36.24Z" transform="translate(-187.77 -240.69)"/></svg>