<?xml version="1.0" standalone="no"?>
<!DOCTYPE svg PUBLIC "-//W3C//DTD SVG 20010904//EN"
 "http://www.w3.org/TR/2001/REC-SVG-20010904/DTD/svg10.dtd">
<svg version="1.0" xmlns="http://www.w3.org/2000/svg"
 width="222.000000pt" height="487.000000pt" viewBox="0 0 222.000000 487.000000"
 preserveAspectRatio="xMidYMid meet">
<metadata>
Created by potrace 1.16, written by Peter Selinger 2001-2019
</metadata>
<g transform="translate(0.000000,487.000000) scale(0.100000,-0.100000)"
fill="#000000" stroke="none">
<path d="M892 4667 c-112 -113 -182 -191 -182 -203 0 -35 28 -64 63 -64 27 0
49 17 154 122 l123 123 0 -81 c0 -89 13 -114 62 -114 44 0 58 28 58 116 l0 79
123 -123 c105 -105 127 -122 154 -122 35 0 63 29 63 64 0 12 -70 90 -182 203
-169 169 -185 183 -218 183 -33 0 -49 -14 -218 -183z"/>
<path d="M1044 4301 c-63 -39 -67 -143 -7 -190 40 -33 113 -29 151 7 105 98
-21 258 -144 183z"/>
<path d="M726 3994 c-38 -38 -24 -60 166 -251 169 -169 185 -183 218 -183 33
0 49 14 218 183 112 113 182 191 182 203 0 35 -28 64 -63 64 -27 0 -49 -17
-154 -122 l-123 -123 0 81 c0 89 -13 114 -62 114 -44 0 -58 -28 -58 -116 l0
-79 -123 123 c-105 104 -127 122 -154 122 -17 0 -39 -7 -47 -16z"/>
<path d="M975 3389 c-183 -23 -390 -110 -533 -225 -179 -143 -306 -339 -370
-572 l-27 -97 0 -770 c0 -855 -2 -828 68 -1015 48 -128 118 -238 219 -345 211
-223 471 -335 778 -335 306 0 568 113 778 335 100 107 171 217 219 345 68 183
66 151 70 940 5 891 2 924 -112 1155 -201 408 -636 640 -1090 584z m300 -130
c364 -61 658 -338 758 -714 20 -77 21 -106 25 -765 4 -738 0 -823 -45 -965
-98 -312 -351 -553 -668 -636 -120 -31 -294 -36 -415 -11 -416 86 -711 408
-760 827 -8 69 -10 311 -8 785 4 661 5 688 26 765 75 282 250 504 492 625 193
96 383 125 595 89z"/>
<path d="M1015 2926 c-60 -28 -87 -56 -114 -116 -19 -42 -21 -65 -21 -305 0
-144 5 -276 10 -296 16 -55 50 -100 104 -133 41 -26 58 -30 116 -30 58 0 75 4
116 30 30 18 60 48 79 78 l30 49 3 276 c3 237 1 281 -13 318 -24 62 -61 102
-120 129 -65 31 -126 31 -190 0z m170 -136 l30 -30 3 -247 c2 -174 0 -255 -9
-275 -30 -72 -113 -91 -171 -39 l-33 29 0 265 0 265 25 27 c50 54 104 55 155
5z"/>
</g>
</svg>
