<?xml version="1.0" encoding="utf-8"?>
<!-- Generator: Adobe Illustrator 25.2.3, SVG Export Plug-In . SVG Version: 6.00 Build 0)  -->
<svg version="1.1" id="Capa_1" xmlns="http://www.w3.org/2000/svg" xmlns:xlink="http://www.w3.org/1999/xlink" x="0px" y="0px"
	 viewBox="0 0 595.28 841.89" style="enable-background:new 0 0 595.28 841.89;" xml:space="preserve">
<style type="text/css">
	.st0{fill:#FFFFFF;}
</style>
<g>
	<g>
		<path class="st0" d="M167.67,513.33c0-86.48,0-172.97,0-259.5c76.06,0,152.14,0,228.3,0c0,86.47,0,172.98,0,259.5
			C319.91,513.33,243.79,513.33,167.67,513.33z M273.79,507.5c1.26-0.59,2.2-1.03,3.13-1.48c30.19-14.79,60.38-29.57,90.56-44.37
			c2.1-1.03,5.12-1.77,5.9-3.41c0.79-1.66-0.65-4.27-1.14-6.46c-1.42-6.34-3.77-12.66-2.18-19.2c1.33-5.49,3.22-10.87,5.11-16.22
			c1.67-4.73-0.11-9.17-4.77-10.99c-4.57-1.78-9.32,0-11.39,4.53c-5.52,12.04-8.9,24.43-5.82,37.64c0.4,1.72-0.26,2.29-1.71,2.99
			c-22.61,11.01-45.19,22.08-67.78,33.13c-0.59,0.29-1.24,0.47-1.87,0.71c-2.7-4.99-5.05-9.95-8-14.58
			c-1.73-2.72-4.12-5.24-6.74-7.24c-5.05-3.85-11.21-3.31-17.27-3.1c-7.94,0.27-15.9,0.38-23.85,0.24
			c-4.81-0.09-6.36-1.94-6.32-6.51c0.05-5.01,0.24-10.13-2.08-14.73c-3.66-7.28-5.02-15.07-6.23-22.87
			c-0.8-5.14-3.77-7.98-8.67-9.61c-4.16-1.38-4.81-2.61-2.94-6.32c2.19-4.36,4.68-8.59,7.02-12.88c4.79-8.77,7.18-17.6,3.58-27.58
			c-2.97-8.25-3.42-17.03-1.5-25.68c4.32-19.44,16.85-33.22,34.5-43.18c15.93-8.99,33.41-12.88,51.89-13.13
			c5.41-0.07,9.5-3.85,9.38-8.54c-0.12-4.69-4.52-8.45-9.85-8.09c-6.78,0.45-13.63,0.73-20.31,1.84
			c-22.35,3.71-42.6,11.92-58.89,27.12c-22.03,20.57-30.71,45.13-22.34,73.86c1.59,5.47,1.03,10.06-1.48,14.82
			c-0.79,1.49-1.67,2.94-2.44,4.43c-2.12,4.11-4.52,8.13-6.26,12.38c-4.25,10.39-0.3,19.89,10.02,25.22
			c0.81,0.42,1.54,1.52,1.72,2.4c1.38,7.04,2.57,14.07,6.15,20.57c1.08,1.95,1.12,4.48,1.35,6.76c0.2,1.98-0.1,4,0,5.99
			c0.48,9.79,7.9,18.31,18.15,19.71c7.66,1.05,15.49,1.13,23.25,1.37c3.42,0.1,6.88-0.42,10.3-0.81c2.35-0.26,3.92,0.55,4.96,2.48
			c1.48,2.75,3.02,5.47,4.44,8.24C266.82,493.72,270.23,500.48,273.79,507.5z"/>
		<path d="M273.79,507.5c-3.56-7.02-6.97-13.79-10.42-20.53c-1.42-2.77-2.97-5.49-4.44-8.24c-1.04-1.93-2.61-2.75-4.96-2.48
			c-3.42,0.38-6.88,0.91-10.3,0.81c-7.76-0.23-15.59-0.32-23.25-1.37c-10.25-1.4-17.67-9.92-18.15-19.71c-0.1-1.99,0.2-4.01,0-5.99
			c-0.23-2.29-0.27-4.81-1.35-6.76c-3.58-6.5-4.78-13.53-6.15-20.57c-0.17-0.89-0.9-1.98-1.72-2.4
			c-10.32-5.33-14.27-14.83-10.02-25.22c1.74-4.25,4.13-8.27,6.26-12.38c0.77-1.5,1.65-2.94,2.44-4.43
			c2.51-4.76,3.07-9.36,1.48-14.82c-8.37-28.74,0.3-53.3,22.34-73.86c16.29-15.2,36.54-23.42,58.89-27.12
			c6.68-1.11,13.52-1.38,20.31-1.84c5.34-0.36,9.73,3.4,9.85,8.09c0.12,4.69-3.97,8.47-9.38,8.54
			c-18.48,0.25-35.97,4.14-51.89,13.13c-17.65,9.96-30.18,23.74-34.5,43.18c-1.92,8.65-1.47,17.42,1.5,25.68
			c3.59,9.98,1.2,18.81-3.58,27.58c-2.34,4.29-4.83,8.52-7.02,12.88c-1.87,3.72-1.22,4.94,2.94,6.32c4.9,1.62,7.87,4.46,8.67,9.61
			c1.21,7.8,2.57,15.59,6.23,22.87c2.32,4.6,2.12,9.72,2.08,14.73c-0.04,4.58,1.51,6.42,6.32,6.51c7.95,0.15,15.91,0.04,23.85-0.24
			c6.07-0.21,12.22-0.76,17.27,3.1c2.62,2,5.01,4.52,6.74,7.24c2.95,4.62,5.3,9.58,8,14.58c0.63-0.24,1.28-0.42,1.87-0.71
			c22.59-11.05,45.17-22.12,67.78-33.13c1.44-0.7,2.11-1.28,1.71-2.99c-3.07-13.21,0.3-25.6,5.82-37.64
			c2.08-4.53,6.82-6.31,11.39-4.53c4.65,1.82,6.44,6.25,4.77,10.99c-1.89,5.35-3.78,10.73-5.11,16.22
			c-1.58,6.54,0.76,12.86,2.18,19.2c0.49,2.19,1.93,4.8,1.14,6.46c-0.78,1.64-3.8,2.38-5.9,3.41
			c-30.18,14.8-60.37,29.58-90.56,44.37C275.99,506.47,275.05,506.91,273.79,507.5z"/>
	</g>
</g>
<g>
	<g>
		<path class="st0" d="M281.81,397.7c0-35.22,0-70.44,0-105.65c33.6,0,67.2,0,100.79,0c0,35.22,0,70.44,0,105.65
			C349.01,397.7,315.41,397.7,281.81,397.7z M289.17,344.25c0,7.08,0.02,14.15-0.02,21.23c-0.01,1.32,0.49,2.19,1.59,2.88
			c12.21,7.55,24.41,15.11,36.6,22.69c1.19,0.74,2.25,0.72,3.43-0.02c3.14-1.99,6.31-3.93,9.47-5.89
			c9.02-5.59,18.03-11.18,27.06-16.76c0.99-0.61,1.63-1.34,1.62-2.58c-0.01-14.36-0.01-28.73-0.01-43.09c0-1.21-0.46-2.13-1.57-2.81
			c-12.17-7.51-24.32-15.04-36.45-22.6c-1.28-0.79-2.36-0.83-3.65-0.02c-12.11,7.54-24.23,15.05-36.37,22.55
			c-1.19,0.74-1.73,1.67-1.72,3.1C289.19,330.04,289.17,337.14,289.17,344.25z"/>
		<path d="M289.17,344.25c0-7.11,0.02-14.22-0.02-21.32c-0.01-1.42,0.53-2.36,1.72-3.1c12.13-7.5,24.26-15.01,36.37-22.55
			c1.29-0.8,2.37-0.77,3.65,0.02c12.13,7.56,24.28,15.09,36.45,22.6c1.11,0.68,1.57,1.6,1.57,2.81c0.01,14.36,0,28.73,0.01,43.09
			c0,1.24-0.64,1.97-1.62,2.58c-9.03,5.58-18.04,11.17-27.06,16.76c-3.16,1.96-6.33,3.9-9.47,5.89c-1.17,0.74-2.24,0.76-3.43,0.02
			c-12.19-7.58-24.39-15.14-36.6-22.69c-1.11-0.68-1.6-1.56-1.59-2.88C289.18,358.41,289.17,351.33,289.17,344.25z M362.07,322.2
			c-0.25-0.16-0.42-0.28-0.6-0.39c-10.51-6.52-21.02-13.03-31.52-19.57c-0.67-0.41-1.12-0.46-1.83-0.02
			c-10.31,6.44-20.65,12.84-30.98,19.25c-0.37,0.23-0.74,0.47-1.16,0.73c0.24,0.16,0.41,0.28,0.59,0.39
			c10.64,6.6,21.29,13.19,31.92,19.81c0.5,0.31,0.8,0.16,1.2-0.09c4.09-2.55,8.2-5.09,12.29-7.63
			C348.65,330.54,355.31,326.4,362.07,322.2z M364.22,326.46c-0.29,0.17-0.43,0.23-0.55,0.31c-10.54,6.54-21.08,13.08-31.64,19.59
			c-0.58,0.36-0.63,0.78-0.62,1.34c0.01,12.09,0.01,24.17,0.01,36.26c0,0.31,0.03,0.62,0.05,1.06c0.41-0.23,0.69-0.38,0.96-0.55
			c10.34-6.41,20.68-12.82,31.03-19.22c0.59-0.36,0.79-0.74,0.79-1.43c-0.02-12.12-0.02-24.23-0.02-36.35
			C364.22,327.18,364.22,326.89,364.22,326.46z M293.87,326.44c0,0.5,0,0.8,0,1.1c0,12.08,0.01,24.17-0.02,36.25
			c0,0.71,0.2,1.12,0.82,1.5c10.38,6.4,20.73,12.83,31.1,19.26c0.24,0.15,0.5,0.27,0.83,0.45c0.02-0.35,0.05-0.58,0.05-0.81
			c0-12.23,0-24.47,0.02-36.7c0-0.61-0.26-0.89-0.73-1.18c-8.66-5.35-17.32-10.72-25.97-16.09
			C297.99,328.99,296.01,327.76,293.87,326.44z"/>
		<path class="st0" d="M362.07,322.2c-6.75,4.19-13.42,8.33-20.09,12.47c-4.1,2.54-8.2,5.08-12.29,7.63c-0.4,0.25-0.7,0.39-1.2,0.09
			c-10.63-6.62-21.28-13.21-31.92-19.81c-0.18-0.11-0.35-0.23-0.59-0.39c0.41-0.26,0.78-0.5,1.16-0.73
			c10.33-6.41,20.67-12.81,30.98-19.25c0.7-0.44,1.16-0.39,1.83,0.02c10.5,6.54,21.01,13.05,31.52,19.57
			C361.64,321.92,361.82,322.04,362.07,322.2z"/>
		<path class="st0" d="M364.22,326.46c0,0.44,0,0.73,0,1.02c0,12.12-0.01,24.23,0.02,36.35c0,0.68-0.2,1.06-0.79,1.43
			c-10.35,6.39-20.69,12.81-31.03,19.22c-0.27,0.17-0.56,0.32-0.96,0.55c-0.02-0.43-0.05-0.75-0.05-1.06c0-12.09,0-24.17-0.01-36.26
			c0-0.56,0.05-0.98,0.62-1.34c10.56-6.51,21.1-13.06,31.64-19.59C363.8,326.69,363.93,326.62,364.22,326.46z"/>
		<path class="st0" d="M293.87,326.44c2.14,1.32,4.12,2.55,6.1,3.78c8.66,5.37,17.31,10.74,25.97,16.09
			c0.47,0.29,0.73,0.57,0.73,1.18c-0.02,12.23-0.02,24.47-0.02,36.7c0,0.23-0.03,0.46-0.05,0.81c-0.33-0.18-0.59-0.3-0.83-0.45
			c-10.36-6.42-20.72-12.85-31.1-19.26c-0.62-0.38-0.82-0.79-0.82-1.5c0.02-12.08,0.02-24.17,0.02-36.25
			C293.87,327.24,293.87,326.94,293.87,326.44z"/>
	</g>
</g>
</svg>
