<svg id="Capa_1" data-name="Capa 1" xmlns="http://www.w3.org/2000/svg" viewBox="0 0 187.32 237.89"><defs><style>.cls-1{fill:#010101;}</style></defs><path class="cls-1" d="M117.12,245.14c-3.43-6.77-6.72-13.29-10-19.78-1.37-2.67-2.86-5.29-4.28-7.94A4.32,4.32,0,0,0,98,215a70.53,70.53,0,0,1-9.92.78c-7.48-.22-15-.31-22.4-1.32a20.24,20.24,0,0,1-17.48-19c-.1-1.91.19-3.86,0-5.77-.23-2.2-.26-4.63-1.31-6.51-3.44-6.26-4.6-13-5.92-19.82a3.65,3.65,0,0,0-1.66-2.31c-9.94-5.13-13.74-14.29-9.65-24.3,1.68-4.09,4-8,6-11.92.74-1.45,1.59-2.84,2.35-4.27a17.92,17.92,0,0,0,1.43-14.28C31.42,78.63,39.78,55,61,35.17,76.7,20.52,96.21,12.6,117.74,9c6.44-1.07,13-1.33,19.57-1.77,5.14-.35,9.37,3.27,9.49,7.79s-3.83,8.16-9,8.23c-17.8.24-34.65,4-50,12.65-17,9.59-29.07,22.87-33.23,41.6A44.22,44.22,0,0,0,56,102.28c3.46,9.61,1.16,18.12-3.45,26.57-2.25,4.13-4.65,8.2-6.76,12.4-1.8,3.59-1.18,4.76,2.83,6.09,4.72,1.56,7.58,4.3,8.35,9.26,1.17,7.52,2.48,15,6,22,2.23,4.44,2,9.37,2,14.19,0,4.42,1.45,6.19,6.09,6.28,7.66.14,15.33,0,23-.24,5.85-.2,11.78-.73,16.64,3a27.78,27.78,0,0,1,6.5,7c2.84,4.45,5.1,9.23,7.7,14a19.16,19.16,0,0,0,1.8-.68q32.66-16,65.3-31.92c1.39-.67,2-1.23,1.65-2.88-3-12.73.29-24.66,5.61-36.26a8.34,8.34,0,0,1,11-4.37c4.48,1.76,6.2,6,4.6,10.59A159,159,0,0,0,209.86,173c-1.52,6.3.74,12.39,2.1,18.5.48,2.11,1.86,4.62,1.1,6.22S209.4,200,207.38,201q-43.62,21.39-87.25,42.75Z" transform="translate(-28.06 -7.24)"/><path class="cls-1" d="M131.93,87.86c0-6.85,0-13.7,0-20.54a3.2,3.2,0,0,1,1.66-3q17.53-10.85,35-21.73a3,3,0,0,1,3.52,0q17.52,10.93,35.11,21.77a3,3,0,0,1,1.52,2.71v41.51a2.76,2.76,0,0,1-1.56,2.49l-26.07,16.15c-3,1.88-6.09,3.75-9.12,5.67a2.82,2.82,0,0,1-3.3,0Q151.09,122,133.45,111.09a2.94,2.94,0,0,1-1.54-2.77C131.94,101.5,131.93,94.68,131.93,87.86Zm70.24-21.24c-.25-.15-.41-.27-.58-.38q-15.19-9.42-30.37-18.85a1.43,1.43,0,0,0-1.76,0q-14.9,9.32-29.85,18.55l-1.12.7.57.38q15.38,9.52,30.75,19.08A.93.93,0,0,0,171,86l11.84-7.35Zm2.07,4.1c-.28.17-.42.23-.53.3q-15.24,9.45-30.48,18.88a1.23,1.23,0,0,0-.6,1.29q0,17.46,0,34.93c0,.3,0,.6.05,1,.39-.22.66-.37.92-.53l29.89-18.52a1.38,1.38,0,0,0,.77-1.37q0-17.52,0-35C204.24,71.42,204.24,71.14,204.24,70.72Zm-67.78,0v1.05q0,17.46,0,34.93a1.47,1.47,0,0,0,.79,1.44q15,9.25,30,18.56c.24.14.49.26.8.43,0-.34,0-.56,0-.78q0-17.67,0-35.36a1.19,1.19,0,0,0-.7-1.13l-25-15.5Z" transform="translate(-28.06 -7.24)"/></svg>