<?xml version="1.0" standalone="no"?>
<!DOCTYPE svg PUBLIC "-//W3C//DTD SVG 20010904//EN"
 "http://www.w3.org/TR/2001/REC-SVG-20010904/DTD/svg10.dtd">
<svg version="1.0" xmlns="http://www.w3.org/2000/svg"
 width="236.000000pt" height="357.000000pt" viewBox="0 0 236.000000 357.000000"
 preserveAspectRatio="xMidYMid meet">
<metadata>
Created by potrace 1.16, written by Peter Selinger 2001-2019
</metadata>
<g transform="translate(0.000000,357.000000) scale(0.100000,-0.100000)"
fill="#000000" stroke="none">
<path d="M1034 3525 c-461 -71 -832 -429 -918 -885 -24 -123 -24 -1577 0
-1700 55 -290 230 -552 480 -716 559 -367 1312 -161 1604 440 27 55 62 146 77
201 l28 100 0 825 0 825 -28 100 c-153 552 -683 897 -1243 810z m342 -126
c199 -35 382 -134 534 -289 98 -99 167 -208 216 -339 54 -144 64 -227 64 -542
l0 -279 -465 0 -465 0 0 730 0 730 28 0 c16 0 55 -5 88 -11z m814 -1953 c0
-286 -3 -393 -15 -459 -76 -437 -436 -771 -877 -816 -439 -44 -857 219 -1014
638 -57 152 -64 219 -64 637 l0 374 985 0 985 0 0 -374z"/>
</g>
</svg>
